<svg xmlns="http://www.w3.org/2000/svg" viewBox="0 0 720 184" role="img" aria-labelledby="title description">
  <title id="title">CsWebUi</title>
  <desc id="description">A browser window containing C sharp brackets beside the CsWebUi name.</desc>
  <defs>
    <linearGradient id="panel" x1="20" y1="12" x2="172" y2="172" gradientUnits="userSpaceOnUse">
      <stop stop-color="#8AA4FF"/>
      <stop offset="1" stop-color="#5978E8"/>
    </linearGradient>
  </defs>

  <rect width="720" height="184" rx="46" fill="#12182C"/>
  <rect x="8" y="8" width="168" height="168" rx="42" fill="#12182C"/>
  <rect x="18" y="18" width="148" height="148" rx="32" fill="url(#panel)"/>
  <path d="M18 55h148" stroke="#12182C" stroke-width="10"/>
  <circle cx="42" cy="37" r="5" fill="#12182C"/>
  <circle cx="59" cy="37" r="5" fill="#12182C" opacity=".72"/>
  <circle cx="76" cy="37" r="5" fill="#12182C" opacity=".44"/>

  <path d="m68 86-20 17 20 17M108 86l20 17-20 17" fill="none" stroke="#10162A" stroke-width="9" stroke-linecap="round" stroke-linejoin="round"/>
  <path d="M82 84h8l-5 38h-8l5-38Zm20 0h8l-5 38h-8l5-38ZM74 96h42v8H74v-8Zm-2 15h42v8H72v-8Z" fill="#F4F7FF"/>

  <g fill="#F4F7FF">
    <text x="210" y="117" font-family="Inter, ui-sans-serif, system-ui, sans-serif" font-size="72" font-weight="760" letter-spacing="-3">CsWebUi</text>
    <rect x="214" y="136" width="420" height="8" rx="4" opacity=".12"/>
    <rect x="214" y="136" width="116" height="8" rx="4" fill="#8AA4FF"/>
  </g>
</svg>
